HIERARCHY
ROOT Hips
{
	OFFSET 0.00000 0.00000 0.00000
	CHANNELS 6 Xposition Yposition Zposition Zrotation Yrotation Xrotation 
	JOINT RightUpLegDummy
	{
		OFFSET 0 0 0
		CHANNELS 3 Zrotation Yrotation Xrotation
		JOINT RightUpLeg
		{
			OFFSET -3.52197 -3.41223 0.04002
			CHANNELS 3 Zrotation Yrotation Xrotation
			JOINT RightLeg
			{
				OFFSET 0.00006 -17.42390 1.60435
				CHANNELS 3 Zrotation Yrotation Xrotation
				JOINT RightFoot
				{
					OFFSET 0.06153 -16.50078 -1.63901
					CHANNELS 3 Zrotation Yrotation Xrotation
					JOINT RightToes
					{
						OFFSET 0.00298 -1.73825 3.34613
						CHANNELS 3 Zrotation Yrotation Xrotation
						End Site
						{
							OFFSET 0.00480 -0.05416 3.85043
						}
					}
				}
			}
		}
	}
	JOINT SpineDummy
	{
		OFFSET 0 0 0
		CHANNELS 3 Zrotation Yrotation Xrotation
		JOINT Spine
		{
			OFFSET 0.00000 4.68130 0.00000
			CHANNELS 3 Zrotation Yrotation Xrotation
			JOINT Spine1
			{
				OFFSET -0.00000 10.10138 0.05002
				CHANNELS 3 Zrotation Yrotation Xrotation
				JOINT HEadDummy
				{
					OFFSET 0 0 0
					CHANNELS 3 Zrotation Yrotation Xrotation
					JOINT Head
					{
						OFFSET -0.00000 3.43865 0.00438
						CHANNELS 3 Zrotation Yrotation Xrotation
						End Site
						{
							OFFSET -0.11417 5.02924 0.98962
						}
					}
				}
				JOINT LeftShoulder1Dummy
				{
					OFFSET 0 0 0
					CHANNELS 3 Zrotation Yrotation Xrotation
					JOINT LeftShoulder1
					{
						OFFSET 3.53937 -0.14262 -0.08662
						CHANNELS 3 Zrotation Yrotation Xrotation
						JOINT LeftArm
						{
							OFFSET 4.04833 -0.00133 0.12681
							CHANNELS 3 Zrotation Yrotation Xrotation
							JOINT LeftForeArm
							{
								OFFSET 10.33880 -0.01036 -0.55515
								CHANNELS 3 Zrotation Yrotation Xrotation
								JOINT LeftHand
								{
									OFFSET 8.69677 0.07543 0.40060
									CHANNELS 3 Zrotation Yrotation Xrotation
									End Site
									{
										OFFSET 5.28377 -0.21905 0.59205
									}
								}
							}
						}
					}
				}
				JOINT RightShoulderDummy
				{
					OFFSET 0 0 0
					CHANNELS 3 Zrotation Yrotation Xrotation
					JOINT RightShoulder
					{
						OFFSET -3.53937 -0.14262 -0.08660
						CHANNELS 3 Zrotation Yrotation Xrotation
						JOINT RightArm
						{
							OFFSET -4.04833 -0.00133 0.12683
							CHANNELS 3 Zrotation Yrotation Xrotation
							JOINT RightForeArm
							{
								OFFSET -10.37987 -0.01039 -0.55511
								CHANNELS 3 Zrotation Yrotation Xrotation
								JOINT RightHand
								{
									OFFSET -8.67398 0.07538 0.40058
									CHANNELS 3 Zrotation Yrotation Xrotation
									End Site
									{
										OFFSET -5.24810 -0.21916 0.59204
									}
								}
							}
						}
					}
				}
			}
		}
	}
	JOINT LeftUpLegDummy
	{
		OFFSET 0 0 0
		CHANNELS 3 Zrotation Yrotation Xrotation
		JOINT LeftUpLeg
		{
			OFFSET 3.52197 -3.41223 0.04002
			CHANNELS 3 Zrotation Yrotation Xrotation
			JOINT LeftLeg
			{
				OFFSET -0.00012 -17.42399 1.60337
				CHANNELS 3 Zrotation Yrotation Xrotation
				JOINT LeftFoot
				{
					OFFSET -0.09972 -16.50070 -1.63802
					CHANNELS 3 Zrotation Yrotation Xrotation
					JOINT LeftToes
					{
						OFFSET -0.01575 -1.73823 3.34611
						CHANNELS 3 Zrotation Yrotation Xrotation
						End Site
						{
							OFFSET 0.03150 -0.01868 3.85031
						}
					}
				}
			}
		}
	}
}
MOTION
Frames: 17
Frame Time: 0.033333
-0.8511 40.1332 -2.8464 -0.9204 -3.1810 -1.6610 0.0000 0.0000 0.0000 -0.6743 -2.7025 3.2923 -1.6009 -4.0243 3.3582 0.3775 -0.0434 -4.4941 0.0000 -0.0000 0.0000 0.0000 0.0000 0.0000 -0.0549 -0.6095 -0.2533 3.6507 -1.4419 3.7410 -0.0000 0.0000 -0.0000 2.0409 -0.8374 -4.3294 -0.0000 0.0000 -0.0000 -34.1313 -2.8897 2.5647 -44.6258 -17.3108 -16.1966 -10.7811 5.0218 51.4206 13.9034 -4.5758 -1.1587 -0.0000 0.0000 -0.0000 34.5463 5.1520 3.5156 39.0070 7.3752 -15.8643 11.1194 -1.8221 24.2184 -12.1800 1.9475 -0.7542 0.0000 0.0000 0.0000 3.5567 2.6602 1.6551 1.8629 6.6267 5.0110 -1.0421 0.0856 -3.9225 0.0000 0.0000 -0.0000
-0.8571 40.1332 -2.8560 -0.9287 -3.2216 -1.6323 0.0000 0.0000 0.0000 -0.6651 -2.7068 3.2515 -1.5707 -3.9836 3.3377 0.3484 -0.0415 -4.4732 0.0000 -0.0000 0.0000 0.0000 0.0000 0.0000 -0.0291 -0.6153 -0.2741 3.5688 -1.4307 3.7300 -0.0000 0.0000 -0.0000 2.0891 -0.8788 -4.2710 -0.0000 0.0000 -0.0000 -34.0652 -2.9026 2.5647 -44.6481 -17.3533 -16.2039 -10.7739 5.0244 51.4491 13.9568 -4.5379 -1.1591 -0.0000 0.0000 -0.0000 34.5923 5.1520 3.5156 38.9595 7.5830 -15.8082 11.1656 -1.9368 24.1966 -12.0030 2.0764 -0.7553 0.0000 0.0000 0.0000 3.5567 2.6209 1.6288 1.9222 6.7074 4.9856 -1.0635 0.0869 -3.8933 0.0000 0.0000 -0.0000
-0.8686 40.1332 -2.8694 -0.9571 -3.2712 -1.5729 0.0000 0.0000 0.0000 -0.6413 -2.7243 3.1839 -1.5006 -3.9293 3.2940 0.2870 -0.0377 -4.4428 0.0000 -0.0000 0.0000 0.0000 0.0000 0.0000 -0.0095 -0.6391 -0.3735 3.4757 -1.4369 3.7694 -0.0000 0.0000 -0.0000 2.1359 -0.9283 -4.1648 -0.0000 0.0000 -0.0000 -33.9801 -2.9201 2.5647 -44.6805 -17.4005 -16.1492 -10.8046 5.0241 51.4294 14.2225 -4.4627 -1.1734 -0.0000 0.0000 -0.0000 34.6367 5.1520 3.5156 38.9060 7.9420 -15.7435 11.2051 -1.9891 24.0536 -11.6009 2.2529 -0.7456 0.0000 0.0000 0.0000 3.5646 2.5720 1.5332 2.0184 6.7960 5.0263 -1.1210 0.0906 -3.8887 0.0000 0.0000 -0.0000
-0.8827 40.1332 -2.8800 -0.9933 -3.3576 -1.5324 0.0000 0.0000 0.0000 -0.6039 -2.7335 3.1293 -1.4326 -3.8504 3.2667 0.2147 -0.0331 -4.4188 0.0000 -0.0000 0.0000 0.0000 0.0000 0.0000 -0.0337 -0.6456 -0.4470 3.4587 -1.4391 3.7939 -0.0000 0.0000 -0.0000 2.1582 -1.0557 -4.0357 -0.0000 0.0000 -0.0000 -33.9561 -2.9168 2.5647 -44.6839 -17.3329 -15.9656 -10.9372 5.0304 51.1709 14.4709 -4.3960 -1.1869 -0.0000 0.0000 -0.0000 34.6218 5.1520 3.5156 38.9450 8.1878 -15.6106 11.2294 -1.7517 23.9425 -11.3626 2.4440 -0.7471 0.0000 0.0000 0.0000 3.5982 2.5551 1.4567 2.0944 6.8764 5.0943 -1.1938 0.0953 -3.9071 0.0000 0.0000 -0.0000
-0.8984 40.1332 -2.8892 -1.0246 -3.5226 -1.5384 0.0000 0.0000 0.0000 -0.5507 -2.7081 3.0963 -1.4052 -3.7241 3.2820 0.1452 -0.0287 -4.4044 0.0000 -0.0000 0.0000 0.0000 0.0000 0.0000 -0.0573 -0.6127 -0.4099 3.4560 -1.4012 3.7441 -0.0000 0.0000 -0.0000 2.2354 -1.3750 -3.8917 -0.0000 0.0000 -0.0000 -33.9906 -2.8998 2.5647 -44.6389 -17.1862 -15.8191 -11.0656 5.0388 50.8467 14.4353 -4.3845 -1.1825 -0.0000 0.0000 -0.0000 34.6058 5.1534 3.5168 39.0377 8.2739 -15.3663 11.2701 -1.3345 23.8996 -11.4716 2.5151 -0.7609 0.0000 0.0000 0.0000 3.6539 2.5838 1.4703 2.1262 6.9953 5.1177 -1.2421 0.0984 -3.9171 0.0000 0.0000 -0.0000
-0.9137 40.1332 -2.8968 -1.0526 -3.7231 -1.5679 0.0000 0.0000 0.0000 -0.4876 -2.6590 3.0780 -1.4089 -3.5822 3.3156 0.0818 -0.0246 -4.3965 0.0000 -0.0000 0.0000 0.0000 0.0000 0.0000 -0.0110 -0.5712 -0.3342 3.3666 -1.3387 3.6795 -0.0000 0.0000 -0.0000 2.3957 -1.7353 -3.7511 -0.0000 0.0000 -0.0000 -34.0439 -2.8942 2.5647 -44.5613 -17.1136 -15.9396 -11.0167 5.0387 50.8675 14.2394 -4.4333 -1.1715 -0.0000 0.0000 -0.0000 34.6515 5.1688 3.5272 39.0928 8.3503 -15.1071 11.3315 -1.0058 23.7965 -11.6292 2.3006 -0.7519 0.0000 0.0000 0.0000 3.7160 2.6298 1.5329 2.1402 7.1449 5.1120 -1.2705 0.1003 -3.9224 0.0000 0.0000 -0.0000
-0.9266 40.1332 -2.8977 -1.0729 -3.8763 -1.5839 0.0000 0.0000 0.0000 -0.4419 -2.6256 3.0695 -1.4072 -3.4687 3.3353 0.0455 -0.0223 -4.3982 0.0000 -0.0000 0.0000 0.0000 0.0000 0.0000 0.0711 -0.5525 -0.3275 3.2333 -1.2941 3.6712 -0.0000 0.0000 -0.0000 2.5491 -1.8296 -3.6363 -0.0000 0.0000 -0.0000 -34.1131 -2.8939 2.5709 -44.4867 -17.1266 -16.2190 -10.8429 5.0310 51.1920 14.1926 -4.4600 -1.1705 -0.0000 0.0000 -0.0000 34.7041 5.1848 3.5376 39.1366 8.4658 -14.9364 11.3795 -0.8269 23.6695 -11.5232 2.0780 -0.7244 0.0000 0.0000 0.0000 3.7532 2.6472 1.5790 2.1730 7.2740 5.1127 -1.3154 0.1031 -3.9355 0.0000 0.0000 -0.0000
-0.9382 40.1332 -2.8895 -1.0675 -3.9563 -1.5744 0.0000 0.0000 0.0000 -0.4351 -2.6220 3.0568 -1.3951 -3.3906 3.3534 0.0651 -0.0235 -4.4191 0.0000 -0.0000 0.0000 0.0000 0.0000 0.0000 0.0698 -0.5424 -0.4021 3.2024 -1.2781 3.7156 -0.0000 0.0000 -0.0000 2.6403 -1.7114 -3.5583 -0.0000 0.0000 -0.0000 -34.2126 -2.8965 2.5755 -44.4404 -17.0811 -16.2977 -10.7926 5.0290 51.2760 14.3197 -4.3529 -1.1690 -0.0000 0.0000 -0.0000 34.6892 5.1841 3.5344 39.2362 8.5234 -14.8489 11.3935 -0.7033 23.7314 -11.3112 2.3802 -0.7377 0.0000 0.0000 0.0000 3.7538 2.6381 1.6013 2.2042 7.3527 5.1036 -1.3636 0.1062 -3.9432 0.0000 0.0000 -0.0000
-0.9519 40.1332 -2.8789 -1.0364 -3.9959 -1.5522 0.0000 0.0000 0.0000 -0.4460 -2.6190 3.0244 -1.4013 -3.3468 3.3978 0.1136 -0.0265 -4.4587 0.0000 -0.0000 0.0000 0.0000 0.0000 0.0000 -0.0417 -0.5168 -0.5048 3.3015 -1.2691 3.7877 -0.0000 0.0000 -0.0000 2.7289 -1.8146 -3.5170 -0.0000 0.0000 -0.0000 -34.3252 -2.9022 2.5852 -44.4116 -16.9548 -16.1108 -10.9281 5.0382 50.9205 14.4141 -4.1308 -1.1510 -0.0000 0.0000 -0.0000 34.6453 5.1744 3.5285 39.3410 8.5207 -14.8252 11.3868 -0.6759 23.9722 -11.3192 3.0583 -0.7995 0.0000 0.0000 0.0000 3.7529 2.6560 1.6167 2.1783 7.3776 5.0717 -1.3661 0.1064 -3.9376 0.0000 0.0000 -0.0000
-0.9678 40.1332 -2.8720 -1.0088 -4.0272 -1.5407 0.0000 0.0000 0.0000 -0.4348 -2.5932 2.9926 -1.4347 -3.3420 3.4538 0.1178 -0.0266 -4.4991 0.0000 -0.0000 0.0000 0.0000 0.0000 0.0000 -0.1299 -0.4803 -0.5617 3.3748 -1.2437 3.8395 -0.0000 0.0000 -0.0000 2.8351 -2.2416 -3.4965 -0.0000 0.0000 -0.0000 -34.4178 -2.9505 2.6108 -44.3677 -16.8961 -15.9837 -11.0304 5.0464 50.6112 14.4441 -3.9582 -1.1333 -0.0000 0.0000 -0.0000 34.6493 5.1730 3.5285 39.3771 8.5317 -14.8998 11.3641 -0.8073 24.1069 -11.4407 3.1998 -0.8211 0.0000 0.0000 0.0000 3.7848 2.7192 1.6355 2.1029 7.3612 5.0428 -1.3369 0.1045 -3.9380 0.0000 0.0000 -0.0000
-0.9845 40.1332 -2.8645 -1.0060 -4.0514 -1.5527 0.0000 0.0000 0.0000 -0.3952 -2.5597 3.0067 -1.4669 -3.3637 3.4739 0.0644 -0.0231 -4.5248 0.0000 -0.0000 0.0000 0.0000 0.0000 0.0000 -0.0611 -0.4559 -0.4941 3.2643 -1.1955 3.7611 -0.0000 0.0000 -0.0000 2.8798 -2.4671 -3.4627 -0.0000 0.0000 -0.0000 -34.4454 -3.0033 2.6339 -44.3244 -16.9448 -16.0834 -10.9713 5.0434 50.7342 14.5569 -3.9376 -1.1400 -0.0000 0.0000 -0.0000 34.7357 5.1848 3.5410 39.3718 8.4625 -15.0506 11.3164 -0.9069 24.0217 -11.2784 2.4588 -0.7429 0.0000 0.0000 0.0000 3.8339 2.7759 1.6769 2.0519 7.3316 5.0229 -1.3384 0.1046 -3.9536 0.0000 0.0000 -0.0000
-1.0028 40.1332 -2.8484 -1.0184 -4.0390 -1.5676 0.0000 0.0000 0.0000 -0.3467 -2.5369 3.0725 -1.4807 -3.4085 3.4351 0.0235 -0.0204 -4.5379 0.0000 -0.0000 0.0000 0.0000 0.0000 0.0000 0.1277 -0.4656 -0.3265 2.9987 -1.1511 3.5330 -0.0000 0.0000 -0.0000 2.8659 -2.1445 -3.3961 -0.0000 0.0000 -0.0000 -34.3478 -2.9924 2.6231 -44.3569 -16.9504 -16.1935 -10.8886 5.0357 51.0209 14.7463 -3.9902 -1.1618 -0.0000 0.0000 -0.0000 34.9433 5.2140 3.5713 39.3360 8.1648 -15.1620 11.2646 -0.7832 23.9373 -10.8728 1.7223 -0.6515 0.0000 0.0000 0.0000 3.8742 2.7924 1.7377 2.0503 7.2901 4.9876 -1.3759 0.1070 -3.9644 0.0000 0.0000 -0.0000
-1.0261 40.1332 -2.8243 -1.0311 -3.9670 -1.5508 0.0000 0.0000 0.0000 -0.2891 -2.5090 3.1441 -1.4988 -3.5091 3.3571 0.0293 -0.0208 -4.5469 0.0000 -0.0000 0.0000 0.0000 0.0000 0.0000 0.2626 -0.5134 -0.2404 2.8002 -1.1605 3.3769 -0.0000 0.0000 -0.0000 2.9085 -1.7696 -3.3298 -0.0000 0.0000 -0.0000 -34.1679 -2.9353 2.5883 -44.4706 -16.8516 -16.1612 -10.8980 5.0327 51.1142 14.8462 -4.0233 -1.1739 -0.0000 0.0000 -0.0000 35.2158 5.2560 3.6128 39.2405 7.7860 -15.1755 11.2496 -0.6308 24.0251 -10.7570 1.8464 -0.6552 0.0000 0.0000 0.0000 3.9222 2.8079 1.7716 2.0406 7.1978 4.9422 -1.4058 0.1090 -3.9613 0.0000 0.0000 -0.0000
-1.0549 40.1332 -2.7990 -1.0440 -3.8853 -1.5092 0.0000 0.0000 0.0000 -0.2087 -2.4550 3.1918 -1.5418 -3.6509 3.2819 0.0247 -0.0205 -4.5577 0.0000 -0.0000 0.0000 0.0000 0.0000 0.0000 0.2179 -0.5598 -0.3496 2.8911 -1.2297 3.5011 -0.0000 0.0000 -0.0000 2.9983 -2.0165 -3.3148 -0.0000 0.0000 -0.0000 -34.1205 -2.9181 2.5783 -44.5158 -16.7833 -16.1466 -10.9102 5.0320 51.1301 14.8488 -4.0955 -1.1829 -0.0000 0.0000 -0.0000 35.2576 5.2649 3.6202 39.2328 7.6294 -15.1477 11.2728 -0.7108 24.1100 -11.1368 2.3821 -0.7263 0.0000 0.0000 0.0000 3.9992 2.8583 1.7715 1.9927 7.0698 4.9112 -1.4267 0.1103 -3.9663 0.0000 0.0000 -0.0000
-1.0855 40.1332 -2.7755 -1.0577 -3.8941 -1.4903 0.0000 0.0000 0.0000 -0.1216 -2.3908 3.2296 -1.5880 -3.7233 3.2507 -0.0306 -0.0168 -4.5826 0.0000 -0.0000 0.0000 0.0000 0.0000 0.0000 0.0595 -0.5497 -0.4972 3.2139 -1.2886 3.7458 -0.0000 0.0000 -0.0000 2.9912 -2.6774 -3.3553 -0.0000 0.0000 -0.0000 -34.3217 -2.9597 2.6082 -44.3791 -16.8172 -16.2539 -10.8618 5.0283 51.2715 14.9352 -4.2988 -1.2148 -0.0000 0.0000 -0.0000 34.8811 5.2007 3.5604 39.5082 7.6658 -15.1252 11.2955 -0.8504 23.9933 -11.5158 2.4188 -0.7551 0.0000 0.0000 0.0000 4.0818 2.9173 1.8092 1.9540 7.0137 4.8831 -1.4638 0.1127 -3.9956 0.0000 0.0000 -0.0000
-1.1140 40.1306 -2.7525 -1.0620 -4.0040 -1.4970 0.0000 0.0000 0.0000 -0.0657 -2.3533 3.2514 -1.5999 -3.6640 3.2821 -0.0945 -0.0125 -4.6336 0.0000 -0.0000 0.0000 0.0000 0.0000 0.0000 -0.0099 -0.4967 -0.4784 3.4077 -1.2736 3.7803 -0.0000 0.0000 -0.0000 2.9161 -2.9821 -3.3907 -0.0000 0.0000 -0.0000 -34.5199 -2.9960 2.6359 -44.1976 -16.8285 -16.3230 -10.8511 5.0251 51.3777 15.1381 -4.5585 -1.2640 -0.0000 0.0000 -0.0000 34.4931 5.1238 3.4949 39.8241 7.5819 -15.1091 11.2982 -0.7838 23.8337 -11.4690 2.0600 -0.7193 0.0000 0.0000 0.0000 4.1344 2.9508 1.8995 1.9569 7.0791 4.8441 -1.5048 0.1153 -4.0342 0.0000 0.0000 -0.0000
-1.1409 40.1276 -2.7314 -1.0473 -4.1038 -1.4563 0.0000 0.0000 0.0000 -0.0549 -2.3569 3.1927 -1.5684 -3.5635 3.3656 -0.1395 -0.0094 -4.7050 0.0000 -0.0000 0.0000 0.0000 0.0000 0.0000 0.1065 -0.4812 -0.3764 3.2395 -1.2219 3.6177 -0.0000 0.0000 -0.0000 2.9768 -2.7316 -3.3800 -0.0000 0.0000 -0.0000 -34.4167 -2.9993 2.6303 -44.1857 -16.7349 -16.2772 -10.9085 5.0277 51.2704 15.2372 -4.6778 -1.2875 -0.0000 0.0000 -0.0000 34.6441 5.1438 3.5163 39.6927 7.3414 -15.1576 11.2835 -0.7390 23.9854 -11.2721 2.0496 -0.7055 0.0000 0.0000 0.0000 4.1546 2.9626 1.9174 1.9734 7.1696 4.8338 -1.5329 0.1171 -4.0589 0.0000 0.0000 -0.0000
